# xmcd
#
# Track frame offsets:
#	150
#	14400
#	28572
#	38677
#	52314
#	65864
#	77109
#	88697
#	102535
#	117212
#	130686
#	146947
#	167179
#
# Disc length: 2453 seconds
# Revision: 0
# Processed by: cddbd v1.5.2PL0 Copyright (c) Steve Scherf et al.
# Submitted via: dBpowerAMP V12.0
#
DISCID=bc09930d
DTITLE=BJ Blue with Brittany Allyn - Deja Vu X2
DYEAR=2010
DGENRE=Country
TTITLE0=Nobody's Business
TTITLE1=Mr. Man in the Moon
TTITLE2=Boogie Grass Band
TTITLE3=Let's Fall to Pieces Together
TTITLE4=Cash on the Barrelhead
TTITLE5=Someone I Used to Know
TTITLE6=Queen of the Silver Dollar
TTITLE7=We've Never Been This Far Before
TTITLE8=Help Me Make It Thru the Night
TTITLE9=Goin' to the Chapel
TTITLE10=When a Man Loves a Woman
TTITLE11=So Into You
TTITLE12=Suspicious Minds
EXTD=
EXTT0=
EXTT1=
EXTT2=
EXTT3=
EXTT4=
EXTT5=
EXTT6=
EXTT7=
EXTT8=
EXTT9=
EXTT10=
EXTT11=
EXTT12=
PLAYORDER=
